<?xml version="1.0" encoding="UTF-8"?>
<svg id="Marca" xmlns="http://www.w3.org/2000/svg" viewBox="0 0 1011.34 1080">
  <defs>
    <style>
      .cls-1 {
        fill: #fff;
        stroke-width: 0px;
      }
    </style>
  </defs>
  <g>
    <path class="cls-1" d="m675.01,335.21c-22.57-29.83-56.97-47.78-95.78-47.9,0,0-191.55,0-191.55,0,2.39-83.82,116.94-98.66,141.03-19.15,0,0,48.98,0,48.98,0-9.01-57.26-59.53-100.82-118.18-100.56-65.63-.35-120.09,54.08-119.74,119.71v47.9h239.54c38.17,0,69.81,30.44,71.74,68.16,2.31,40.35-31.05,75.74-71.84,75.49v-67.01h-47.88v114.91c45.25-.3,81.69,5.06,119.71-23.94,52.48-38.49,63.61-115.99,23.94-167.61Z"/>
    <path class="cls-1" d="m387.68,359.19h-47.89c0,34.72,0,134.49,0,167.57h167.6v-47.89h-119.71v-119.68Z"/>
  </g>
  <g>
    <path class="cls-1" d="m234.9,756.86h-67.29v-94.59h23.2v74.54s44.09,0,44.09,0v20.05Z"/>
    <path class="cls-1" d="m338.22,748.14c-7.37,6.64-16.13,9.95-26.29,9.95s-18.92-3.32-26.29-9.95c-7.37-6.64-11.05-15.22-11.05-25.74v-60.13h23.06v60.13c0,4.12,1.44,7.5,4.33,10.16,2.88,2.65,6.2,3.98,9.95,3.98s7.07-1.32,9.95-3.98c2.88-2.65,4.33-6.04,4.33-10.16v-60.13h23.06v60.13c0,10.52-3.68,19.1-11.05,25.74Z"/>
    <path class="cls-1" d="m463.25,723.22l18.81,13.18c-4.39,6.68-10.14,11.97-17.23,15.85-7.09,3.89-14.76,5.84-23,5.84-13.27,0-24.62-4.74-34.05-14.21-9.43-9.47-14.14-20.89-14.14-34.25,0-13.45,4.69-24.92,14.07-34.39,9.38-9.47,20.75-14.21,34.11-14.21,8.33,0,16.04,1.95,23.13,5.84,7.09,3.89,12.84,9.17,17.23,15.85l-19.08,13.32c-2.2-3.66-5.2-6.57-8.99-8.72-3.8-2.15-7.89-3.23-12.29-3.23-6.95,0-12.86,2.49-17.71,7.48-4.85,4.99-7.28,11.01-7.28,18.05,0,7.05,2.43,13.05,7.28,17.99,4.85,4.94,10.75,7.42,17.71,7.42,4.49,0,8.6-1.05,12.36-3.16,3.75-2.11,6.77-4.99,9.06-8.65Z"/>
    <path class="cls-1" d="m522.44,728.72h23.2c.18,2.75,1.24,4.97,3.16,6.66,1.92,1.69,4.76,2.54,8.51,2.54,3.2,0,5.95-.73,8.24-2.19,2.29-1.46,3.43-3.57,3.43-6.32,0-.82-.09-1.51-.27-2.06-.18-.55-1.05-1.42-2.61-2.61-1.56-1.19-3.76-2.24-6.59-3.16l-11.12-3.71c-5.04-1.37-9.29-3.2-12.77-5.49-3.48-2.29-6.02-4.78-7.62-7.48-1.6-2.7-2.72-5.24-3.36-7.62-.64-2.38-.96-4.8-.96-7.27,0-8.6,3.11-15.58,9.33-20.94,6.22-5.35,14.14-8.03,23.75-8.03,9.61,0,17.44,2.63,23.48,7.89,6.04,5.27,9.06,12.47,9.06,21.62h-22.93c0-5.86-3.3-8.79-9.89-8.79-3.11,0-5.56.68-7.34,2.06-1.79,1.37-2.68,3.21-2.68,5.49,0,3.39,2.93,5.95,8.79,7.69l10.85,3.43c17.48,5.4,26.22,15.01,26.22,28.83,0,6.59-1.88,12.15-5.63,16.68-3.75,4.53-8.15,7.69-13.18,9.47-5.04,1.79-10.43,2.68-16.2,2.68-10.62,0-19.08-2.68-25.4-8.03-6.31-5.36-9.47-12.47-9.47-21.35Z"/>
    <path class="cls-1" d="m703.15,756.86l-7.96-21.69h-29.79s-7.96,21.69-7.96,21.69h-24.57s34.87-94.59,34.87-94.59h24.99s34.74,94.59,34.74,94.59h-24.3Zm-23.07-72.63l-8.51,31.16h17.71s-9.2-31.16-9.2-31.16Z"/>
    <path class="cls-1" d="m820.81,662.27h22.93v94.59h-20.04s-28.97-51.62-28.97-51.62v51.62h-22.93v-94.59h20.73s28.28,50.93,28.28,50.93v-50.93Z"/>
    <g>
      <path class="cls-1" d="m204.45,911.02h-36.84v-94.72h36.84c13.11,0,23.49,4.47,31.14,13.4,7.65,8.94,11.48,20.33,11.48,34.16s-3.8,25.05-11.41,33.89c-7.61,8.85-18.01,13.27-31.21,13.27Zm-22.27-81.11v67.64h22.27c8.98,0,15.9-3.16,20.76-9.49,4.86-6.33,7.28-14.39,7.28-24.2s-2.45-18.03-7.35-24.4c-4.9-6.37-11.8-9.55-20.69-9.55h-22.27Z"/>
      <path class="cls-1" d="m310.57,911.02v-94.72h57.05v13.47h-42.48v28.05h37.12v13.34h-37.12v26.53h43.86v13.34h-58.43Z"/>
      <path class="cls-1" d="m428.71,883.52h14.57c.18,4.03,2.02,7.63,5.5,10.79,3.48,3.16,7.93,4.74,13.34,4.74s9.49-1.24,12.51-3.71c3.03-2.48,4.81-5.54,5.36-9.21.46-7.79-4.53-12.92-14.98-15.4l-11.96-3.03c-15.67-4.21-23.51-12.69-23.51-25.43,0-7.88,3.07-14.37,9.21-19.45,6.14-5.08,13.47-7.63,22-7.63s16.24,2.54,22.06,7.63c5.82,5.09,8.73,11.89,8.73,20.42h-14.57c0-4.31-1.51-7.77-4.54-10.38-3.03-2.61-7.01-3.92-11.96-3.92-4.49,0-8.34,1.21-11.55,3.64-3.21,2.43-4.81,5.57-4.81,9.42,0,6.05,4.21,10.17,12.65,12.37l12.1,3.16c9.35,2.48,16.13,6.25,20.35,11.34,4.21,5.09,5.96,11.12,5.22,18.08-.73,7.51-4.05,13.63-9.97,18.35-5.91,4.72-13.36,7.08-22.34,7.08-9.63,0-17.6-2.84-23.92-8.52-6.33-5.68-9.49-12.46-9.49-20.35Z"/>
      <path class="cls-1" d="m556.7,911.02v-94.72h14.57v94.72h-14.57Z"/>
      <path class="cls-1" d="m710.54,828.53l-10.72,9.49c-6.23-5.96-13.66-8.94-22.27-8.94-9.35,0-17.25,3.39-23.71,10.17-6.46,6.78-9.69,14.99-9.69,24.61s3.23,17.83,9.69,24.61c6.46,6.78,14.37,10.17,23.71,10.17,7.88,0,14.5-2.13,19.87-6.39,5.36-4.26,8.22-9.87,8.59-16.84h-26.53v-12.51h43.31c0,16.41-4.03,28.76-12.1,37.05-8.07,8.3-19.11,12.44-33.13,12.44s-24.72-4.72-34.02-14.16c-9.31-9.44-13.95-20.9-13.95-34.37s4.63-24.95,13.89-34.44c9.26-9.49,20.62-14.23,34.09-14.23s24.1,4.45,33,13.34Z"/>
      <path class="cls-1" d="m843.73,816.3v94.72h-13.61l-40.69-67.78v67.78h-14.57v-94.72h14.02l40.28,67.23v-67.23h14.57Z"/>
    </g>
  </g>
</svg>