<?xml version="1.0" encoding="UTF-8"?>
<svg id="Marca" xmlns="http://www.w3.org/2000/svg" viewBox="0 0 1920 896.74">
  <defs>
    <style>
      .cls-1 {
        fill: #fff;
        stroke-width: 0px;
      }
    </style>
  </defs>
  <g>
    <path class="cls-1" d="m649.38,432.91c-29.15-38.53-73.57-61.71-123.69-61.86,0,0-247.38,0-247.38,0,3.09-108.24,151.02-127.42,182.13-24.74,0,0,63.26,0,63.26,0-11.63-73.94-76.88-130.2-152.62-129.86-84.76-.46-155.09,69.84-154.63,154.6v61.86h309.36c49.29,0,90.16,39.32,92.65,88.03,2.99,52.11-40.1,97.81-92.77,97.49v-86.54h-61.83v148.4c58.44-.39,105.49,6.53,154.61-30.92,67.78-49.7,82.15-149.79,30.92-216.46Z"/>
    <path class="cls-1" d="m278.3,463.88h-61.85c0,44.84.01,173.69,0,216.41h216.44v-61.85h-154.6v-154.57Z"/>
  </g>
  <g>
    <path class="cls-1" d="m917.27,418.75h-86.91v-122.16h29.96v96.27s56.94,0,56.94,0v25.89Z"/>
    <path class="cls-1" d="m1050.7,407.49c-9.52,8.57-20.83,12.85-33.95,12.85-13.12,0-24.44-4.28-33.95-12.85-9.52-8.57-14.27-19.65-14.27-33.24v-77.66h29.78v77.66c0,5.32,1.86,9.69,5.59,13.12,3.72,3.43,8.01,5.14,12.85,5.14s9.13-1.71,12.85-5.14c3.72-3.43,5.59-7.8,5.59-13.12v-77.66h29.78v77.66c0,13.59-4.76,24.67-14.27,33.24Z"/>
    <path class="cls-1" d="m1212.17,375.31l24.29,17.02c-5.67,8.63-13.09,15.45-22.25,20.47-9.16,5.02-19.06,7.54-29.7,7.54-17.14,0-31.79-6.12-43.97-18.35-12.18-12.23-18.26-26.98-18.26-44.24,0-17.38,6.05-32.18,18.17-44.41,12.11-12.23,26.8-18.35,44.06-18.35,10.75,0,20.72,2.51,29.88,7.54,9.16,5.02,16.58,11.85,22.25,20.47l-24.64,17.2c-2.84-4.72-6.71-8.48-11.62-11.26-4.91-2.77-10.19-4.17-15.87-4.17-8.98,0-16.61,3.22-22.87,9.67-6.27,6.44-9.4,14.21-9.4,23.31,0,9.1,3.13,16.85,9.4,23.23,6.26,6.38,13.89,9.58,22.87,9.58,5.79,0,11.11-1.36,15.96-4.08,4.85-2.72,8.75-6.44,11.7-11.17Z"/>
    <path class="cls-1" d="m1288.61,382.4h29.96c.24,3.55,1.6,6.41,4.08,8.6,2.48,2.19,6.14,3.28,10.99,3.28,4.14,0,7.68-.94,10.64-2.83,2.95-1.89,4.43-4.61,4.43-8.16,0-1.06-.12-1.95-.35-2.66-.24-.71-1.36-1.83-3.37-3.37-2.01-1.53-4.85-2.89-8.51-4.07l-14.36-4.79c-6.5-1.77-12-4.14-16.49-7.09-4.49-2.95-7.77-6.17-9.84-9.66-2.07-3.49-3.52-6.76-4.34-9.84-.83-3.07-1.24-6.2-1.24-9.39,0-11.11,4.02-20.12,12.05-27.04,8.04-6.91,18.26-10.37,30.67-10.37,12.41,0,22.52,3.4,30.32,10.19,7.8,6.8,11.7,16.11,11.7,27.93h-29.61c0-7.56-4.26-11.35-12.77-11.35-4.02,0-7.18.88-9.48,2.66-2.31,1.77-3.46,4.14-3.46,7.09,0,4.37,3.78,7.68,11.35,9.93l14.01,4.43c22.57,6.98,33.86,19.38,33.86,37.23,0,8.51-2.42,15.69-7.27,21.54-4.85,5.85-10.52,9.93-17.02,12.23-6.5,2.31-13.47,3.46-20.92,3.46-13.71,0-24.64-3.46-32.8-10.37-8.15-6.92-12.23-16.1-12.23-27.57Z"/>
    <path class="cls-1" d="m1521.99,418.75l-10.29-28.01h-38.47s-10.28,28.01-10.28,28.01h-31.74s45.03-122.16,45.03-122.16h32.27s44.86,122.16,44.86,122.16h-31.38Zm-29.79-93.79l-10.99,40.25h22.87s-11.88-40.25-11.88-40.25Z"/>
    <path class="cls-1" d="m1673.94,296.59h29.61v122.16h-25.88s-37.41-66.66-37.41-66.66v66.66h-29.61v-122.16h26.77s36.52,65.78,36.52,65.78v-65.78Z"/>
    <g>
      <path class="cls-1" d="m877.94,617.84h-47.58v-122.33h47.58c16.93,0,30.33,5.77,40.22,17.31,9.88,11.54,14.82,26.25,14.82,44.12s-4.91,32.35-14.74,43.77c-9.83,11.43-23.26,17.13-40.3,17.13Zm-28.76-104.75v87.35h28.76c11.6,0,20.54-4.08,26.81-12.25,6.27-8.17,9.41-18.58,9.41-31.25s-3.17-23.29-9.5-31.51c-6.33-8.22-15.24-12.34-26.72-12.34h-28.76Z"/>
      <path class="cls-1" d="m1015,617.84v-122.33h73.68v17.4h-54.86v36.22h47.94v17.22h-47.94v34.27h56.64v17.22h-75.46Z"/>
      <path class="cls-1" d="m1167.56,582.33h18.82c.24,5.21,2.6,9.85,7.1,13.94,4.49,4.08,10.24,6.13,17.22,6.13s12.25-1.6,16.16-4.79c3.91-3.2,6.22-7.16,6.92-11.89.59-10.06-5.86-16.69-19.35-19.89l-15.45-3.91c-20.24-5.44-30.36-16.39-30.36-32.85,0-10.18,3.97-18.55,11.9-25.12,7.93-6.57,17.4-9.85,28.41-9.85s20.98,3.29,28.49,9.85c7.52,6.57,11.28,15.36,11.28,26.37h-18.82c0-5.56-1.95-10.03-5.86-13.4-3.91-3.37-9.05-5.06-15.45-5.06-5.8,0-10.77,1.57-14.91,4.71-4.14,3.14-6.22,7.19-6.22,12.16,0,7.81,5.44,13.14,16.33,15.98l15.62,4.08c12.08,3.2,20.83,8.08,26.28,14.65,5.44,6.57,7.69,14.36,6.74,23.35-.95,9.7-5.23,17.61-12.87,23.7-7.63,6.1-17.25,9.15-28.85,9.15-12.43,0-22.73-3.67-30.89-11.01-8.17-7.34-12.25-16.1-12.25-26.28Z"/>
      <path class="cls-1" d="m1332.86,617.84v-122.33h18.82v122.33h-18.82Z"/>
      <path class="cls-1" d="m1531.53,511.31l-13.85,12.25c-8.05-7.69-17.64-11.54-28.77-11.54-12.07,0-22.28,4.38-30.63,13.14-8.35,8.76-12.52,19.35-12.52,31.78s4.17,23.02,12.52,31.78c8.35,8.76,18.55,13.14,30.63,13.14,10.18,0,18.73-2.75,25.66-8.26,6.92-5.5,10.62-12.75,11.1-21.75h-34.27v-16.16h55.93c0,21.19-5.21,37.14-15.62,47.85-10.42,10.71-24.68,16.07-42.79,16.07s-31.93-6.1-43.94-18.29c-12.02-12.19-18.02-26.99-18.02-44.39s5.97-32.22,17.93-44.47c11.95-12.25,26.63-18.38,44.03-18.38s31.13,5.74,42.61,17.22Z"/>
      <path class="cls-1" d="m1703.55,495.51v122.33h-17.58l-52.55-87.53v87.53h-18.82v-122.33h18.11l52.02,86.82v-86.82h18.82Z"/>
    </g>
  </g>
</svg>