<?xml version="1.0" encoding="UTF-8"?>
<svg id="Marca" xmlns="http://www.w3.org/2000/svg" viewBox="0 0 1920 289.44">
  <defs>
    <style>
      .cls-1 {
        fill: #ff5548;
        stroke-width: 0px;
      }
    </style>
  </defs>
  <g>
    <g>
      <path class="cls-1" d="m144.25,208.01h-74.41v-104.59h25.65v82.42s48.75,0,48.75,0v22.16Z"/>
      <path class="cls-1" d="m258.49,198.37c-8.15,7.34-17.84,11-29.07,11-11.23,0-20.92-3.67-29.07-11-8.15-7.34-12.22-16.82-12.22-28.46v-66.49h25.5v66.49c0,4.55,1.59,8.3,4.78,11.23,3.18,2.94,6.85,4.4,11,4.4,4.15,0,7.82-1.46,11-4.4,3.19-2.94,4.78-6.68,4.78-11.23v-66.49h25.5v66.49c0,11.64-4.07,21.12-12.22,28.46Z"/>
      <path class="cls-1" d="m396.74,170.82l20.79,14.58c-4.86,7.39-11.21,13.23-19.05,17.53-7.84,4.3-16.32,6.45-25.43,6.45-14.67,0-27.22-5.24-37.64-15.71-10.43-10.47-15.64-23.1-15.64-37.88,0-14.88,5.18-27.55,15.56-38.02,10.37-10.47,22.95-15.71,37.72-15.71,9.21,0,17.74,2.15,25.58,6.45,7.84,4.3,14.19,10.14,19.05,17.53l-21.1,14.72c-2.43-4.05-5.74-7.26-9.95-9.64-4.2-2.38-8.73-3.57-13.59-3.57-7.69,0-14.22,2.76-19.58,8.28-5.36,5.52-8.05,12.17-8.05,19.96,0,7.79,2.68,14.42,8.05,19.89,5.36,5.47,11.89,8.2,19.58,8.2,4.96,0,9.51-1.16,13.66-3.49,4.15-2.33,7.49-5.52,10.02-9.57Z"/>
      <path class="cls-1" d="m462.19,176.89h25.65c.2,3.04,1.37,5.49,3.49,7.36,2.13,1.87,5.26,2.81,9.41,2.81,3.54,0,6.58-.81,9.11-2.43,2.53-1.62,3.79-3.95,3.79-6.98,0-.91-.1-1.67-.3-2.28-.2-.61-1.16-1.57-2.88-2.88-1.72-1.31-4.15-2.48-7.29-3.49l-12.3-4.1c-5.57-1.52-10.27-3.54-14.12-6.07-3.85-2.53-6.66-5.29-8.43-8.27-1.77-2.99-3.01-5.79-3.72-8.43-.71-2.63-1.06-5.31-1.06-8.04,0-9.51,3.44-17.23,10.32-23.15,6.88-5.92,15.64-8.88,26.26-8.88,10.63,0,19.28,2.91,25.96,8.73,6.68,5.82,10.02,13.79,10.02,23.91h-25.35c0-6.47-3.64-9.71-10.93-9.71-3.44,0-6.15.76-8.12,2.27-1.97,1.52-2.96,3.55-2.96,6.07,0,3.75,3.24,6.58,9.71,8.5l11.99,3.8c19.33,5.97,28.99,16.6,28.99,31.88,0,7.29-2.08,13.43-6.23,18.44-4.15,5.01-9.01,8.5-14.57,10.47-5.57,1.97-11.54,2.96-17.91,2.96-11.74,0-21.1-2.96-28.08-8.88-6.98-5.92-10.47-13.79-10.47-23.61Z"/>
      <path class="cls-1" d="m662,208.01l-8.81-23.98h-32.94s-8.8,23.98-8.8,23.98h-27.17s38.56-104.59,38.56-104.59h27.63s38.41,104.59,38.41,104.59h-26.87Zm-25.5-80.3l-9.41,34.46h19.58s-10.17-34.46-10.17-34.46Z"/>
      <path class="cls-1" d="m792.1,103.42h25.35v104.59h-22.16s-32.03-57.08-32.03-57.08v57.08h-25.35v-104.59h22.92s31.27,56.32,31.27,56.32v-56.32Z"/>
    </g>
    <g>
      <path class="cls-1" d="m923.82,207.93h-40.74v-104.74h40.74c14.49,0,25.97,4.94,34.43,14.82,8.46,9.88,12.69,22.47,12.69,37.77s-4.21,27.69-12.62,37.47c-8.41,9.78-19.91,14.67-34.51,14.67Zm-24.62-89.69v74.79h24.62c9.93,0,17.58-3.5,22.96-10.49,5.37-6.99,8.06-15.91,8.06-26.76s-2.71-19.94-8.13-26.98c-5.42-7.04-13.05-10.56-22.88-10.56h-24.62Z"/>
      <path class="cls-1" d="m1041.17,207.93v-104.74h63.09v14.9h-46.97v31.01h41.04v14.75h-41.04v29.34h48.49v14.75h-64.61Z"/>
      <path class="cls-1" d="m1171.79,177.53h16.11c.2,4.46,2.23,8.44,6.08,11.93,3.85,3.5,8.76,5.25,14.75,5.25s10.49-1.37,13.83-4.11c3.35-2.74,5.32-6.13,5.93-10.18.51-8.61-5.01-14.29-16.57-17.03l-13.23-3.35c-17.33-4.66-25.99-14.04-25.99-28.12,0-8.71,3.4-15.89,10.19-21.51,6.79-5.62,14.9-8.44,24.32-8.44s17.96,2.81,24.4,8.44c6.44,5.63,9.66,13.15,9.66,22.58h-16.11c0-4.76-1.67-8.59-5.02-11.48-3.35-2.89-7.75-4.33-13.22-4.33-4.97,0-9.22,1.34-12.77,4.03-3.55,2.69-5.32,6.15-5.32,10.41,0,6.69,4.66,11.25,13.98,13.68l13.38,3.5c10.34,2.74,17.84,6.91,22.5,12.54,4.66,5.63,6.59,12.29,5.77,19.99-.81,8.31-4.48,15.07-11.02,20.29-6.53,5.22-14.77,7.83-24.7,7.83-10.64,0-19.46-3.14-26.45-9.42-6.99-6.28-10.49-13.78-10.49-22.5Z"/>
      <path class="cls-1" d="m1313.31,207.93v-104.74h16.11v104.74h-16.11Z"/>
      <path class="cls-1" d="m1483.41,116.73l-11.86,10.49c-6.89-6.59-15.1-9.88-24.63-9.88-10.34,0-19.08,3.75-26.22,11.25-7.15,7.5-10.72,16.57-10.72,27.21s3.57,19.71,10.72,27.21c7.15,7.5,15.89,11.25,26.22,11.25,8.71,0,16.04-2.36,21.97-7.07,5.93-4.71,9.09-10.92,9.5-18.62h-29.34v-13.83h47.88c0,18.14-4.46,31.8-13.38,40.97-8.92,9.17-21.13,13.76-36.64,13.76s-27.34-5.22-37.62-15.66c-10.29-10.44-15.43-23.11-15.43-38.01s5.12-27.59,15.35-38.08c10.23-10.49,22.8-15.73,37.7-15.73s26.65,4.92,36.48,14.75Z"/>
      <path class="cls-1" d="m1630.69,103.2v104.74h-15.05l-45-74.94v74.94h-16.11v-104.74h15.51l44.54,74.33v-74.33h16.11Z"/>
    </g>
  </g>
  <g>
    <path class="cls-1" d="m1840.23,139.69c-9.4-12.43-23.74-19.91-39.91-19.96,0,0-79.82,0-79.82,0,1-34.93,48.73-41.11,58.77-7.98,0,0,20.41,0,20.41,0-3.75-23.86-24.81-42.01-49.25-41.9-27.35-.15-50.04,22.53-49.9,49.89v19.96h99.82c15.91,0,29.09,12.69,29.9,28.4.96,16.82-12.94,31.56-29.94,31.46v-27.92h-19.95v47.88c18.86-.13,34.04,2.11,49.89-9.98,21.87-16.04,26.51-48.33,9.98-69.85Z"/>
    <path class="cls-1" d="m1720.49,149.68h-19.96c0,14.47,0,56.04,0,69.83h69.84v-19.96h-49.88v-49.87Z"/>
  </g>
</svg>