<?xml version="1.0" encoding="UTF-8"?>
<svg xmlns="http://www.w3.org/2000/svg" viewBox="0 0 1080 1080">
  <defs>
    <style>
      .cls-1 {
        fill: #fff;
      }

      .cls-1, .cls-2 {
        stroke-width: 0px;
      }

      .cls-2 {
        fill: #141619;
      }
    </style>
  </defs>
  <g id="Fondo">
    <rect class="cls-2" width="1080" height="1080"/>
  </g>
  <g id="Marca">
    <g>
      <path class="cls-1" d="m776.14,501.78c-30.32-40.07-76.52-64.18-128.65-64.34h-257.3c3.21-112.58,157.07-132.53,189.44-25.73,0,0,65.8,0,65.8,0-12.1-76.91-79.97-135.42-158.74-135.07-88.15-.48-161.31,72.64-160.83,160.8v64.34h321.76c51.27,0,93.77,40.89,96.37,91.56,3.1,54.2-41.71,101.73-96.49,101.4v-90.01h-64.31v154.35c60.78-.4,109.72,6.79,160.8-32.16,70.5-51.7,85.45-155.79,32.16-225.14Z"/>
      <path class="cls-1" d="m390.18,533.99h-64.33c0,46.64.01,180.65,0,225.09h225.12v-64.33h-160.8v-160.76Z"/>
    </g>
  </g>
</svg>